# xmcd
#
# Track frame offsets:
#	150
#	20446
#	33802
#	43499
#	60260
#	70774
#	90044
#	103523
#	118750
#	132074
#
# Disc length: 2015 seconds
#
# Revision: 1
# Processed by: cddbd v1.5.1PL2 Copyright (c) Steve Scherf et al.
# Submitted via: EasyCDDAExtractor 9.1.0.1
#
DISCID=7407dd0a
DTITLE=Blaze Foley - Wanted More Dead Than Alive
DYEAR=2005
DGENRE=Country
TTITLE0=If I Could Only Fly
TTITLE1=It's Just You
TTITLE2=Down Here Where I Am
TTITLE3=Life Of A Texas Man
TTITLE4=Faded Love and Memories
TTITLE5=Ooh Love
TTITLE6=1,2,3 1,2,3,4,5
TTITLE7=Alibis
TTITLE8=Clay Pigeon
TTITLE9=Black Granite
EXTD=YEAR: 2005
EXTT0=
EXTT1=
EXTT2=
EXTT3=
EXTT4=
EXTT5=
EXTT6=
EXTT7=
EXTT8=
EXTT9=
PLAYORDER=
